<svg width="24" height="24" viewBox="0 0 24 24" fill="none" xmlns="http://www.w3.org/2000/svg">
<path d="M6.75 12.0023C6.75 12.4165 6.41421 12.7523 6 12.7523C5.58579 12.7523 5.25 12.4165 5.25 12.0023C5.25 11.5881 5.58579 11.2523 6 11.2523C6.41421 11.2523 6.75 11.5881 6.75 12.0023Z" stroke="#747474" stroke-width="1.5" stroke-linecap="round" stroke-linejoin="round"/>
<path d="M12.75 12.0023C12.75 12.4165 12.4142 12.7523 12 12.7523C11.5858 12.7523 11.25 12.4165 11.25 12.0023C11.25 11.5881 11.5858 11.2523 12 11.2523C12.4142 11.2523 12.75 11.5881 12.75 12.0023Z" stroke="#747474" stroke-width="1.5" stroke-linecap="round" stroke-linejoin="round"/>
<path d="M18.75 12.0023C18.75 12.4165 18.4142 12.7523 18 12.7523C17.5858 12.7523 17.25 12.4165 17.25 12.0023C17.25 11.5881 17.5858 11.2523 18 11.2523C18.4142 11.2523 18.75 11.5881 18.75 12.0023Z" stroke="#747474" stroke-width="1.5" stroke-linecap="round" stroke-linejoin="round"/>
</svg>
